<svg id="Layer_1" data-name="Layer 1" xmlns="http://www.w3.org/2000/svg" viewBox="0 0 100 30">
    <defs>
        <style>
            .cls-1 {
                fill: #fff;
            }

            .cls-2 {
                fill: #1b75bc;
            }
        </style>
    </defs>
    <title>fivestarlogobefore</title>
    <path class="cls-1" d="M4.08,19.82V10.88A2,2,0,0,0,3.75,9.5a2.18,2.18,0,0,0-1.42-.34V8.77H12.88l0,1.45,0,1.45h-.48a2.38,2.38,0,0,0-.76-1.73,4.63,4.63,0,0,0-2.37-.41H6.82a.82.82,0,0,0-.57.14.83.83,0,0,0-.14.57v4.39h2.7a3,3,0,0,0,1.77-.36,2.34,2.34,0,0,0,.59-1.53h.46v4.6h-.46a2.34,2.34,0,0,0-.59-1.53,3,3,0,0,0-1.77-.36H6.11v4.39a1.88,1.88,0,0,0,.36,1.38A2.59,2.59,0,0,0,8,21.55v.38H2.33v-.38a2.16,2.16,0,0,0,1.42-.35A2,2,0,0,0,4.08,19.82Z"
    />
    <path class="cls-1" d="M15.43,19.82V10.88a1.88,1.88,0,0,0-.36-1.38,2.59,2.59,0,0,0-1.56-.34V8.77h5.87v.38a2.59,2.59,0,0,0-1.56.34,1.88,1.88,0,0,0-.36,1.38v8.95a1.88,1.88,0,0,0,.36,1.38,2.59,2.59,0,0,0,1.56.35v.38H13.5v-.38a2.59,2.59,0,0,0,1.56-.35A1.88,1.88,0,0,0,15.43,19.82Z"
    />
    <path class="cls-1" d="M22.07,10.88a4.41,4.41,0,0,0-.87-1.39,1.71,1.71,0,0,0-1.12-.33V8.77h5.27v.38q-1.19,0-1.41.34t.26,1.38l3.56,8.26h0l2.92-7.57a3.24,3.24,0,0,0,.38-1.94q-.2-.46-1.42-.48V8.77h4v.38a1.39,1.39,0,0,0-1,.33,4.5,4.5,0,0,0-.77,1.39L27.4,22.14h-.31Z"
    />
    <path class="cls-1" d="M34.36,21.93v-.38a2.19,2.19,0,0,0,1.42-.35,2,2,0,0,0,.33-1.38V10.88a2,2,0,0,0-.33-1.38,2.18,2.18,0,0,0-1.42-.34V8.77H44.91l0,1.45,0,1.45H44.5a2.38,2.38,0,0,0-.76-1.73,4.63,4.63,0,0,0-2.37-.41H38.84a.82.82,0,0,0-.57.14.83.83,0,0,0-.14.57v4.39H41a3,3,0,0,0,1.77-.36,2.34,2.34,0,0,0,.59-1.53h.46v4.6h-.46a2.34,2.34,0,0,0-.59-1.53A3,3,0,0,0,41,15.44H38.13v4.82a1,1,0,0,0,.18.73,1,1,0,0,0,.73.18h1.87a6.34,6.34,0,0,0,3-.5,4.33,4.33,0,0,0,1.56-2.11H46l-.44,1.68-.45,1.68H34.36Z"
    />
    <path class="cls-1" d="M55.1,12.72a4.56,4.56,0,0,0-1.38-2.46,3.39,3.39,0,0,0-2.35-1,2,2,0,0,0-1.45.52,1.75,1.75,0,0,0-.56,1.34,2,2,0,0,0,.52,1.39,8.09,8.09,0,0,0,2,1.41,14.23,14.23,0,0,1,3.31,2.36A3.24,3.24,0,0,1,56,18.57a3.3,3.3,0,0,1-1.18,2.61,4.44,4.44,0,0,1-3,1,7.12,7.12,0,0,1-2.63-.58,1,1,0,0,0-.74,0,.55.55,0,0,0-.33.51v.12h-.43L47.09,18h.46a6,6,0,0,0,1.66,2.61,3.65,3.65,0,0,0,2.44.9,2.36,2.36,0,0,0,1.69-.62,2.1,2.1,0,0,0,.66-1.6,2.42,2.42,0,0,0-.63-1.66A9.48,9.48,0,0,0,51,15.93a10.1,10.1,0,0,1-2.68-2,3.18,3.18,0,0,1-.7-2.1,3.16,3.16,0,0,1,1-2.42,3.62,3.62,0,0,1,2.58-.94,5.94,5.94,0,0,1,2.24.54,1.13,1.13,0,0,0,.8.09.69.69,0,0,0,.42-.52l0-.12h.42l.47,4.21Z"
    />
    <path class="cls-1" d="M62.35,19.82V9.61H61.28a3.82,3.82,0,0,0-2.29.48,3.49,3.49,0,0,0-.88,2.08h-.47l0-1.7.06-1.7H69l0,1.7.06,1.7h-.47a3.49,3.49,0,0,0-.88-2.08,3.82,3.82,0,0,0-2.29-.48H64.38V19.82a1.89,1.89,0,0,0,.36,1.38,2.5,2.5,0,0,0,1.52.35v.38H60.49v-.38A2.45,2.45,0,0,0,62,21.2,1.92,1.92,0,0,0,62.35,19.82Z"
    />
    <path class="cls-1" d="M86.38,19.82V10.88a2.07,2.07,0,0,0-.32-1.38,2.06,2.06,0,0,0-1.37-.34V8.77h5.59a6.23,6.23,0,0,1,3.62.92,2.92,2.92,0,0,1,1.31,2.53,3,3,0,0,1-1.43,2.62,5.79,5.79,0,0,1-2.06.8L95,19.82a7.74,7.74,0,0,0,1.3,1.39,1.88,1.88,0,0,0,1.09.34v.38H94.21l-4.63-6.14q-.61,0-1.17,0v4a1.88,1.88,0,0,0,.36,1.38,2.59,2.59,0,0,0,1.56.35v.38H84.69v-.38a2,2,0,0,0,1.37-.35A2.05,2.05,0,0,0,86.38,19.82Zm2-4.69a2.2,2.2,0,0,1,.42,0A5.64,5.64,0,0,0,92,14.42a2.51,2.51,0,0,0,1-2.22,2.43,2.43,0,0,0-.87-2,4,4,0,0,0-2.52-.7,4.19,4.19,0,0,0-.57,0,.8.8,0,0,0-.54.22,1,1,0,0,0-.14.62Z"
    />
    <polygon class="cls-2" points="77.56 8.82 79.19 13.83 84.45 13.83 80.19 16.92 81.82 21.93 77.56 18.84 73.3 21.93 74.93 16.92 70.67 13.83 75.94 13.83 77.56 8.82"
    />
</svg>